<svg width="244" height="36" viewBox="0 0 244 36" fill="none" xmlns="http://www.w3.org/2000/svg">
<rect width="36" height="36" rx="8" fill="#07B7E0" fill-opacity="0.08"/>
<path d="M19.4638 27V18.7894H22.3585L22.7919 15.5895H19.4637V13.5465C19.4637 12.6201 19.7339 11.9888 21.1293 11.9888L22.909 11.988V9.12607C22.6012 9.08715 21.5447 9 20.3157 9C17.7497 9 15.9929 10.4912 15.9929 13.2297V15.5895H13.0908V18.7894H15.9929V26.9999H19.4638V27Z" fill="#10295A" fill-opacity="0.7"/>
<rect x="52" width="36" height="36" rx="8" fill="#07B7E0" fill-opacity="0.08"/>
<path d="M73.0271 10.7015V10.6982H73.8711L74.1794 10.7598C74.385 10.7998 74.5717 10.8522 74.7394 10.9171C74.9071 10.9819 75.0694 11.0575 75.2263 11.144C75.3832 11.2304 75.5255 11.3185 75.6532 11.4082C75.7798 11.4968 75.8934 11.5908 75.9941 11.6902C76.0936 11.7907 76.2489 11.8166 76.4599 11.768C76.6709 11.7194 76.8981 11.6518 77.1416 11.5654C77.385 11.479 77.6258 11.3817 77.8638 11.2736C78.1019 11.1656 78.2469 11.097 78.2988 11.0678C78.3497 11.0375 78.3768 11.0213 78.38 11.0192L78.3832 11.0143L78.3995 11.0062L78.4157 10.9981L78.4319 10.99L78.4482 10.9819L78.4514 10.977L78.4563 10.9738L78.4612 10.9705L78.4644 10.9657L78.4806 10.9608L78.4968 10.9576L78.4936 10.9819L78.4887 11.0062L78.4806 11.0305L78.4725 11.0548L78.4644 11.071L78.4563 11.0872L78.4482 11.1116C78.4427 11.1278 78.4373 11.1494 78.4319 11.1764C78.4265 11.2034 78.3751 11.3115 78.2777 11.5006C78.1803 11.6897 78.0586 11.8815 77.9125 12.076C77.7665 12.2705 77.6355 12.4174 77.5198 12.5168C77.4029 12.6173 77.3255 12.6875 77.2876 12.7275C77.2498 12.7686 77.2038 12.8064 77.1497 12.841L77.0685 12.8945L77.0523 12.9026L77.0361 12.9107L77.0328 12.9156L77.028 12.9188L77.0231 12.922L77.0198 12.9269L77.0036 12.935L76.9874 12.9431L76.9841 12.948L76.9793 12.9512L76.9744 12.9545L76.9711 12.9593L76.9679 12.9642L76.963 12.9674L76.9582 12.9707L76.9549 12.9755H77.0361L77.4905 12.8783C77.7935 12.8134 78.083 12.7351 78.3589 12.6433L78.7971 12.4974L78.8458 12.4812L78.8702 12.4731L78.8864 12.465L78.9026 12.4569L78.9188 12.4488L78.9351 12.4406L78.9675 12.4358L79 12.4325V12.465L78.9919 12.4682L78.9838 12.4731L78.9805 12.4779L78.9757 12.4812L78.9708 12.4844L78.9675 12.4893L78.9643 12.4941L78.9594 12.4974L78.9546 12.5006L78.9513 12.5055L78.9481 12.5103L78.9432 12.5136L78.9351 12.5298L78.927 12.546L78.9221 12.5492C78.9199 12.5525 78.8512 12.6443 78.716 12.8248C78.5807 13.0063 78.5077 13.0982 78.4968 13.1003C78.486 13.1036 78.4709 13.1198 78.4514 13.149C78.433 13.1792 78.3183 13.2997 78.1073 13.5104C77.8963 13.7211 77.6897 13.9086 77.4873 14.0728C77.2839 14.2382 77.1811 14.4413 77.1789 14.6823C77.1757 14.9222 77.1632 15.1934 77.1416 15.4959C77.1199 15.7985 77.0794 16.1254 77.0198 16.4765C76.9603 16.8277 76.8684 17.2248 76.7439 17.6679C76.6195 18.1109 76.468 18.5431 76.2894 18.9645C76.1109 19.3859 75.9243 19.7641 75.7295 20.0991C75.5347 20.4341 75.3562 20.7177 75.1939 20.9501C75.0316 21.1824 74.8666 21.4012 74.6988 21.6065C74.5311 21.8118 74.319 22.0431 74.0626 22.3002C73.8051 22.5563 73.6644 22.6968 73.6406 22.7216C73.6157 22.7454 73.5097 22.834 73.3225 22.9875C73.1363 23.142 72.9362 23.2965 72.7219 23.451C72.5088 23.6045 72.3129 23.7325 72.1344 23.8352C71.9558 23.9378 71.7405 24.055 71.4884 24.1869C71.2373 24.3198 70.9657 24.443 70.6736 24.5564C70.3814 24.6699 70.073 24.7752 69.7484 24.8725C69.4238 24.9697 69.11 25.0454 68.807 25.0994C68.5041 25.1534 68.1605 25.1994 67.7764 25.2372L67.2002 25.2939V25.302H66.1452V25.2939L66.0072 25.2858C65.9152 25.2804 65.8395 25.275 65.78 25.2696C65.7205 25.2642 65.4959 25.2345 65.1064 25.1805C64.7169 25.1264 64.4112 25.0724 64.1894 25.0184C63.9675 24.9643 63.6375 24.8617 63.1993 24.7104C62.761 24.5591 62.3861 24.4062 62.0745 24.2517C61.7639 24.0983 61.5692 24.001 61.4902 23.96C61.4123 23.92 61.3246 23.8703 61.2272 23.8108L61.0812 23.7217L61.0779 23.7168L61.073 23.7136L61.0682 23.7104L61.0649 23.7055L61.0487 23.6974L61.0325 23.6893L61.0292 23.6844L61.0243 23.6812L61.0195 23.6779L61.0162 23.6731L61.013 23.6682L61.0081 23.665H61V23.6326L61.0162 23.6358L61.0325 23.6407L61.1055 23.6488C61.1542 23.6542 61.2868 23.6623 61.5032 23.6731C61.7196 23.6839 61.9495 23.6839 62.193 23.6731C62.4364 23.6623 62.6853 23.6379 62.9396 23.6001C63.1939 23.5623 63.4941 23.4975 63.8404 23.4056C64.1867 23.3138 64.5048 23.2046 64.7948 23.0782C65.0837 22.9507 65.2893 22.8556 65.4116 22.793C65.5327 22.7314 65.7178 22.6168 65.9666 22.4493L66.3399 22.1981L66.3432 22.1932L66.3481 22.19L66.3529 22.1868L66.3562 22.1819L66.3594 22.177L66.3643 22.1738L66.3692 22.1706L66.3724 22.1657L66.3886 22.1608L66.4049 22.1576L66.4081 22.1414L66.413 22.1252L66.4179 22.1219L66.4211 22.1171L66.2913 22.109C66.2047 22.1036 66.1208 22.0982 66.0397 22.0928C65.9585 22.0874 65.8314 22.063 65.6583 22.0198C65.4851 21.9766 65.2985 21.9118 65.0983 21.8253C64.8981 21.7389 64.7033 21.6362 64.514 21.5174C64.3246 21.3985 64.1877 21.2996 64.1033 21.2207C64.02 21.1429 63.9118 21.0327 63.7787 20.8901C63.6467 20.7464 63.532 20.5989 63.4346 20.4476C63.3372 20.2963 63.2442 20.1218 63.1555 19.9241L63.0207 19.6291L63.0126 19.6048L63.0045 19.5804L62.9996 19.5642L62.9964 19.548L63.0207 19.5513L63.0451 19.5561L63.2236 19.5804C63.3427 19.5967 63.5293 19.6021 63.7836 19.5967C64.0379 19.5913 64.2137 19.5804 64.3111 19.5642C64.4085 19.548 64.468 19.5372 64.4896 19.5318L64.5221 19.5237L64.5627 19.5156L64.6032 19.5075L64.6065 19.5026L64.6114 19.4994L64.6162 19.4962L64.6195 19.4913L64.587 19.4832L64.5546 19.4751L64.5221 19.467L64.4896 19.4589L64.4572 19.4508C64.4355 19.4454 64.3977 19.4346 64.3436 19.4184C64.2895 19.4022 64.1434 19.3427 63.9053 19.2401C63.6673 19.1374 63.4779 19.0375 63.3372 18.9402C63.1962 18.8427 63.0618 18.736 62.9347 18.6209C62.8081 18.5042 62.6691 18.354 62.5176 18.1703C62.3661 17.9866 62.2308 17.7732 62.1118 17.5301C61.9928 17.287 61.9035 17.0546 61.844 16.8331C61.7847 16.6129 61.7456 16.3878 61.7272 16.1605L61.6979 15.8201L61.7142 15.8233L61.7304 15.8282L61.7466 15.8363L61.7628 15.8444L61.7791 15.8525L61.7953 15.8606L62.0469 15.9741C62.2146 16.0497 62.4229 16.1146 62.6718 16.1686C62.9207 16.2226 63.0694 16.2523 63.1181 16.2577L63.1912 16.2658H63.3372L63.334 16.261L63.3291 16.2577L63.3243 16.2545L63.321 16.2496L63.3178 16.2448L63.3129 16.2415L63.308 16.2383L63.3048 16.2334L63.2885 16.2253L63.2723 16.2172L63.2691 16.2123L63.2642 16.2091L63.2593 16.2059L63.2561 16.201L63.2399 16.1929L63.2236 16.1848L63.2204 16.1799C63.2171 16.1778 63.1706 16.1432 63.0808 16.0762C62.9921 16.0081 62.899 15.9201 62.8016 15.812C62.7042 15.7039 62.6069 15.5905 62.5095 15.4716C62.4119 15.3525 62.325 15.225 62.2498 15.0907C62.174 14.9557 62.094 14.7838 62.0096 14.5753C61.9262 14.3678 61.8629 14.1587 61.8197 13.948C61.7764 13.7373 61.752 13.5293 61.7466 13.324C61.7412 13.1187 61.7466 12.9431 61.7628 12.7972C61.7791 12.6514 61.8115 12.4866 61.8602 12.3029C61.9089 12.1192 61.9793 11.9247 62.0712 11.7194L62.2092 11.4114L62.2173 11.3871L62.2254 11.3628L62.2303 11.3595L62.2335 11.3547L62.2368 11.3498L62.2417 11.3466L62.2465 11.3498L62.2498 11.3547L62.253 11.3595L62.2579 11.3628L62.2628 11.366L62.266 11.3709L62.2693 11.3758L62.2741 11.379L62.2822 11.3952L62.2904 11.4114L62.2952 11.4147L62.2985 11.4195L62.5176 11.6626C62.6637 11.8247 62.8368 12.0057 63.037 12.2056C63.2372 12.4055 63.3481 12.5093 63.3697 12.5168C63.3914 12.5255 63.4184 12.5503 63.4509 12.5914C63.4833 12.6314 63.5915 12.727 63.7755 12.8783C63.9594 13.0295 64.2002 13.2051 64.4977 13.405C64.7953 13.6049 65.1253 13.8022 65.4878 13.9967C65.8503 14.1912 66.2399 14.3667 66.6564 14.5234C67.073 14.6801 67.3652 14.7828 67.5329 14.8314C67.7006 14.88 67.9874 14.9421 68.3931 15.0178C68.7989 15.0934 69.1046 15.1421 69.3102 15.1637C69.5158 15.1853 69.6565 15.1977 69.7322 15.2009L69.8458 15.2042L69.8426 15.1799L69.8377 15.1556L69.8052 14.9529C69.7836 14.8179 69.7728 14.6288 69.7728 14.3857C69.7728 14.1425 69.7917 13.9183 69.8296 13.713C69.8675 13.5077 69.9243 13.2997 70 13.089C70.0757 12.8783 70.1499 12.7092 70.2224 12.5817C70.296 12.4552 70.3923 12.311 70.5113 12.1489C70.6303 11.9868 70.7845 11.8193 70.9739 11.6464C71.1632 11.4735 71.3796 11.3196 71.6231 11.1845C71.8665 11.0494 72.0911 10.9468 72.2967 10.8765C72.5023 10.8063 72.6754 10.7604 72.8161 10.7388C72.9567 10.7172 73.0271 10.7047 73.0271 10.7015V10.7015Z" fill="#10295A" fill-opacity="0.7"/>
<rect x="104" width="36" height="36" rx="8" fill="#07B7E0" fill-opacity="0.08"/>
<path d="M122 9C125.595 9 127.393 8.9998 128.688 9.85645C129.266 10.239 129.761 10.7343 130.144 11.3125C131 12.6072 131 14.4049 131 18C131 21.5951 131 23.3928 130.144 24.6875C129.761 25.2657 129.266 25.761 128.688 26.1436C127.393 27.0002 125.595 27 122 27C118.405 27 116.607 27.0002 115.312 26.1436C114.734 25.761 114.239 25.2657 113.856 24.6875C113 23.3928 113 21.5951 113 18C113 14.4049 113 12.6072 113.856 11.3125C114.239 10.7343 114.734 10.239 115.312 9.85645C116.607 8.9998 118.405 9 122 9ZM122 13.3408C119.427 13.3408 117.341 15.4268 117.341 18C117.341 20.5733 119.427 22.6592 122 22.6592C124.573 22.6591 126.659 20.5733 126.659 18C126.659 15.4268 124.573 13.3409 122 13.3408ZM122 14.917C123.703 14.9171 125.083 16.2975 125.083 18C125.083 19.7026 123.703 21.0829 122 21.083C120.297 21.083 118.917 19.7027 118.917 18C118.917 16.2974 120.297 14.917 122 14.917ZM126.844 12.0117C126.239 12.0117 125.748 12.5019 125.748 13.1064C125.748 13.7111 126.239 14.2012 126.844 14.2012C127.448 14.2009 127.938 13.7109 127.938 13.1064C127.938 12.5021 127.448 12.012 126.844 12.0117Z" fill="#10295A" fill-opacity="0.7"/>
<rect x="156" width="36" height="36" rx="8" fill="#07B7E0" fill-opacity="0.08"/>
<path d="M165 11.4201C165 10.8428 165.203 10.3666 165.608 9.99148C166.014 9.6163 166.541 9.42871 167.189 9.42871C167.826 9.42871 168.342 9.6134 168.736 9.98282C169.141 10.3638 169.344 10.8602 169.344 11.472C169.344 12.0261 169.147 12.4879 168.753 12.8573C168.347 13.2382 167.815 13.4287 167.154 13.4287H167.137C166.5 13.4287 165.985 13.2382 165.591 12.8573C165.197 12.4763 165 11.9972 165 11.4201ZM165.226 26.5716V15.0045H169.083V26.5716H165.226ZM171.22 26.5716H175.077V20.1127C175.077 19.7086 175.124 19.3969 175.216 19.1776C175.378 18.7851 175.625 18.4532 175.955 18.182C176.285 17.9107 176.699 17.775 177.197 17.775C178.494 17.775 179.143 18.6466 179.143 20.3897V26.5716H183V19.9395C183 18.231 182.595 16.9352 181.784 16.0521C180.973 15.169 179.902 14.7274 178.569 14.7274C177.075 14.7274 175.911 15.3681 175.077 16.6495V16.6841H175.06L175.077 16.6495V15.0045H171.22C171.243 15.3739 171.255 16.5225 171.255 18.4504C171.255 20.3782 171.243 23.0853 171.22 26.5716Z" fill="#10295A" fill-opacity="0.7"/>
<rect x="208" width="36" height="36" rx="8" fill="#07B7E0" fill-opacity="0.08"/>
<path d="M226.439 24.9797L222.377 24.9038C221.061 24.8773 219.743 24.9301 218.453 24.656C216.492 24.2465 216.353 22.2386 216.207 20.5544C216.007 18.1865 216.085 15.7757 216.463 13.4276C216.676 12.1101 217.516 11.324 218.815 11.2384C223.201 10.9279 227.615 10.9647 231.991 11.1096C232.453 11.1228 232.918 11.1954 233.374 11.278C235.623 11.681 235.678 13.9564 235.824 15.8718C235.969 17.807 235.908 19.7522 235.63 21.6742C235.407 23.2656 234.98 24.6002 233.18 24.729C230.924 24.8975 228.72 25.0331 226.458 24.9899C226.458 24.9797 226.445 24.9797 226.439 24.9797ZM224.051 20.9507C225.75 19.9533 227.418 18.9725 229.108 17.9818C227.405 16.9844 225.741 16.0036 224.051 15.0129V20.9507Z" fill="#10295A" fill-opacity="0.7"/>
</svg>
