<svg width="109" height="10" viewBox="0 0 109 10" fill="none" xmlns="http://www.w3.org/2000/svg">
<path fill-rule="evenodd" clip-rule="evenodd" d="M80 10C77.2386 10 75 7.76142 75 5C75 2.23858 77.2386 0 80 0C82.7614 0 85 2.23858 85 5C85 7.76142 82.7614 10 80 10Z" fill="white"/>
<path fill-rule="evenodd" clip-rule="evenodd" d="M103.5 10C100.739 10 98.5 7.76142 98.5 5C98.5 2.23858 100.739 0 103.5 0C106.261 0 108.5 2.23858 108.5 5C108.5 7.76142 106.261 10 103.5 10Z" fill="white"/>
<path fill-rule="evenodd" clip-rule="evenodd" d="M55 10C52.2386 10 50 7.76142 50 5C50 2.23858 52.2386 0 55 0C57.7614 0 60 2.23858 60 5C60 7.76142 57.7614 10 55 10Z" fill="white"/>
<path fill-rule="evenodd" clip-rule="evenodd" d="M5 10C2.23858 10 0 7.76142 0 5C0 2.23858 2.23858 0 5 0C7.76142 0 10 2.23858 10 5C10 7.76142 7.76142 10 5 10Z" fill="white"/>
<path d="M30 10C32.7614 10 35 7.76142 35 5C35 2.23858 32.7614 0 30 0C27.2386 0 25 2.23858 25 5C25 7.76142 27.2386 10 30 10Z" fill="#07B7E0"/>
</svg>
